<?xml version="1.0" encoding="UTF-8"?>
<svg version="1.1" xmlns="http://www.w3.org/2000/svg" width="625" height="625">
<path d="M0 0 C1.43291942 -0.00258688 2.86583811 -0.00560094 4.29875582 -0.0090034 C8.22315228 -0.01703912 12.1475304 -0.01886106 16.0719341 -0.01960087 C20.31010192 -0.02145749 24.54826037 -0.02900801 28.78642273 -0.03573608 C38.04932471 -0.04929694 47.31222235 -0.05534101 56.57513261 -0.05974674 C62.36580067 -0.06251374 68.15646708 -0.066752 73.94713402 -0.07125092 C89.9983869 -0.08344211 106.04963847 -0.09374077 122.10089588 -0.09712601 C123.12753156 -0.09734557 124.15416724 -0.09756514 125.21191309 -0.09779136 C126.24093141 -0.09800964 127.26994973 -0.09822791 128.33015043 -0.09845281 C130.41514321 -0.09889626 132.500136 -0.09934283 134.58512878 -0.09979248 C135.61934543 -0.10001391 136.65356207 -0.10023534 137.71911862 -0.10046348 C154.45733123 -0.10440704 171.19550018 -0.12184822 187.93369595 -0.145152 C205.14300154 -0.168917 222.35228528 -0.18133025 239.56160754 -0.18249393 C249.2139964 -0.18340795 258.86632843 -0.18909107 268.51870155 -0.20731354 C276.74224329 -0.22278437 284.96571062 -0.22779419 293.18926416 -0.21957543 C297.37795582 -0.2156931 301.56649797 -0.21647876 305.75517082 -0.23063278 C350.59827603 -0.37319491 389.50677337 9.64030699 422.44377136 41.64044189 C447.84351878 66.93662959 462.94663126 102.374265 463.05949521 138.21892959 C463.05871517 139.55395788 463.05783642 140.88898611 463.05686951 142.22401428 C463.05945639 143.6569337 463.06247045 145.0898524 463.06587291 146.52277011 C463.07390863 150.44716656 463.07573056 154.37154468 463.07647038 158.29594839 C463.078327 162.53411621 463.08587751 166.77227465 463.09260559 171.01043701 C463.10616644 180.27333899 463.11221051 189.53623663 463.11661625 198.79914689 C463.11938325 204.58981495 463.12362151 210.38048136 463.12812042 216.1711483 C463.14031162 232.22240119 463.15061028 248.27365275 463.15399551 264.32491016 C463.15421508 265.35154584 463.15443465 266.37818152 463.15466087 267.43592737 C463.15487914 268.46494569 463.15509742 269.49396401 463.15532231 270.55416471 C463.15576577 272.63915749 463.15621233 274.72415028 463.15666199 276.80914307 C463.15688342 277.84335971 463.15710485 278.87757636 463.15733299 279.9431329 C463.16127654 296.68134551 463.17871773 313.41951447 463.20202151 330.15771023 C463.22578651 347.36701582 463.23819975 364.57629957 463.23936343 381.78562182 C463.24027746 391.43801069 463.24596057 401.09034271 463.26418304 410.74271584 C463.27965388 418.96625757 463.2846637 427.1897249 463.27644494 435.41327844 C463.27256261 439.6019701 463.27334826 443.79051225 463.28750229 447.9791851 C463.43006442 492.82229032 453.41656251 531.73078765 421.41642761 564.66778564 C396.12023992 590.06753306 360.68260451 605.17064554 324.83793992 605.28350949 C323.50291163 605.28272945 322.16788339 605.28185071 320.83285522 605.28088379 C319.39993581 605.28347067 317.96701711 605.28648473 316.5340994 605.28988719 C312.60970295 605.29792291 308.68532482 605.29974485 304.76092112 605.30048466 C300.5227533 605.30234128 296.28459486 605.30989179 292.0464325 605.31661987 C282.78353051 605.33018073 273.52063287 605.3362248 264.25772262 605.34063053 C258.46705455 605.34339753 252.67638815 605.34763579 246.88572121 605.3521347 C230.83446832 605.3643259 214.78321676 605.37462456 198.73195934 605.3780098 C197.70532366 605.37822936 196.67868799 605.37844893 195.62094213 605.37867515 C194.59192381 605.37889343 193.56290549 605.3791117 192.5027048 605.3793366 C190.41771201 605.37978005 188.33271923 605.38022662 186.24772644 605.38067627 C185.2135098 605.3808977 184.17929315 605.38111913 183.11373661 605.38134727 C166.375524 605.38529083 149.63735504 605.40273201 132.89915927 605.42603579 C115.68985368 605.44980079 98.48056994 605.46221403 81.27124768 605.46337771 C71.61885882 605.46429174 61.9665268 605.46997486 52.31415367 605.48819733 C44.09061194 605.50366816 35.86714461 605.50867798 27.64359107 605.50045922 C23.45489941 605.49657689 19.26635725 605.49736255 15.0776844 605.51151657 C-29.76542081 605.6540787 -68.67391814 595.64057679 -101.61091614 563.64044189 C-127.01066355 538.3442542 -142.11377604 502.90661879 -142.22663999 467.0619542 C-142.22585995 465.72692591 -142.2249812 464.39189767 -142.22401428 463.05686951 C-142.22660116 461.62395009 -142.22961522 460.19103139 -142.23301768 458.75811368 C-142.2410534 454.83371723 -142.24287534 450.90933911 -142.24361515 446.9849354 C-142.24547177 442.74676758 -142.25302229 438.50860914 -142.25975037 434.27044678 C-142.27331122 425.00754479 -142.27935529 415.74464715 -142.28376102 406.4817369 C-142.28652803 400.69106884 -142.29076628 394.90040243 -142.2952652 389.10973549 C-142.30745639 373.0584826 -142.31775505 357.00723104 -142.32114029 340.95597363 C-142.32135986 339.92933795 -142.32157942 338.90270227 -142.32180564 337.84495642 C-142.32202392 336.8159381 -142.3222422 335.78691978 -142.32246709 334.72671908 C-142.32291055 332.64172629 -142.32335711 330.55673351 -142.32380676 328.47174072 C-142.32402819 327.43752408 -142.32424962 326.40330743 -142.32447776 325.33775089 C-142.32842132 308.59953828 -142.3458625 291.86136932 -142.36916628 275.12317356 C-142.39293129 257.91386797 -142.40534453 240.70458422 -142.40650821 223.49526197 C-142.40742223 213.8428731 -142.41310535 204.19054108 -142.43132782 194.53816795 C-142.44679865 186.31462622 -142.45180847 178.09115889 -142.44358972 169.86760535 C-142.43970738 165.67891369 -142.44049304 161.49037154 -142.45464706 157.30169868 C-142.59720919 112.45859347 -132.58370729 73.55009614 -100.58357239 40.61309814 C-73.83821348 13.75824677 -37.59490825 -0.02722877 0 0 Z " fill="#EE9330" transform="translate(152.0835723876953,9.85955810546875)"/>
<path d="M0 0 C4.5938668 3.72622707 8.82566953 7.815666 13 12 C13.76441406 12.7528125 14.52882813 13.505625 15.31640625 14.28125 C23.56715632 22.93565712 28.96752394 33.8408212 33 45 C33.36351562 45.85464844 33.72703125 46.70929688 34.1015625 47.58984375 C35 50 35 50 35 53 C36.08539063 52.65066406 37.17078125 52.30132812 38.2890625 51.94140625 C39.73430661 51.48155585 41.17962297 51.02193245 42.625 50.5625 C43.33785156 50.33240234 44.05070313 50.10230469 44.78515625 49.86523438 C45.83896484 49.53168945 45.83896484 49.53168945 46.9140625 49.19140625 C47.8723999 48.88505249 47.8723999 48.88505249 48.85009766 48.57250977 C71.9202324 42.42903191 96.48694623 47.92397774 116.9375 59.125 C134.7772897 69.92215377 146.74854307 85.242514 155.8671875 103.78515625 C158.30659269 108.69327231 161.03082266 113.43040069 163.75 118.1875 C168.85738144 127.17262676 173.89168795 136.19570278 178.875 145.25 C180.23560749 147.72139249 181.59628485 150.19274649 182.95703125 152.6640625 C183.29403549 153.27618088 183.63103973 153.88829926 183.97825623 154.51896667 C187.49082312 160.89626183 191.02473208 167.26165439 194.5625 173.625 C195.17722168 174.73069336 195.79194336 175.83638672 196.42529297 176.97558594 C197.66378823 179.20286149 198.90239475 181.43007518 200.14111328 183.65722656 C202.63650482 188.1446052 205.12998366 192.63304511 207.62329102 197.12158203 C208.87231155 199.37004646 210.12149719 201.61841918 211.37084961 203.86669922 C214.52330463 209.53988442 217.6737013 215.21419621 220.8203125 220.890625 C226.65293162 231.40831579 232.50242458 241.91472788 238.4375 252.375 C244.05074923 262.26806962 249.55955216 272.21709466 255.02319336 282.19335938 C258.24917133 288.07485933 261.51505501 293.92222256 264.90625 299.7109375 C265.51339844 300.75443359 266.12054687 301.79792969 266.74609375 302.87304688 C267.88173005 304.81678072 269.02944145 306.75353044 270.19140625 308.68164062 C273.99140575 315.20772673 274.96738265 319.24057799 273.0390625 326.734375 C272.58422662 328.07861935 272.11190177 329.41703518 271.625 330.75 C271.36170898 331.47807861 271.09841797 332.20615723 270.82714844 332.95629883 C257.21682653 369.05740915 230.20582575 397.20843719 195.29077148 413.30200195 C176.65579981 421.59346465 158.90249895 424.45023404 138.68164062 424.48339844 C136.68095091 424.49731688 134.68026898 424.51239529 132.67959595 424.52853394 C127.29175879 424.56754378 121.90403302 424.58716316 116.51607704 424.60056591 C113.14546369 424.60940328 109.7748799 424.62172475 106.40428162 424.63507843 C95.8436005 424.675977 85.28298804 424.70505135 74.7222333 424.7166841 C62.55444778 424.73016515 50.38766673 424.78304004 38.22018671 424.86968589 C28.7905326 424.93449822 19.36116179 424.964794 9.93128729 424.96880746 C4.30766304 424.97194989 -1.31501146 424.98963779 -6.93840027 425.0432663 C-12.21835698 425.09265704 -17.49664723 425.09920481 -22.77675247 425.07284927 C-24.7121642 425.07053647 -26.64766518 425.08359039 -28.58285141 425.11322403 C-43.20877922 425.32405828 -43.20877922 425.32405828 -47.66755676 422.0281601 C-49.47191809 419.75001966 -50.75741839 417.61726858 -52 415 C-52.67546875 414.02933594 -53.3509375 413.05867188 -54.046875 412.05859375 C-54.60890625 411.19363281 -55.1709375 410.32867188 -55.75 409.4375 C-58.84437238 404.73357885 -61.99061525 400.0723547 -65.1875 395.4375 C-66.13155844 394.06774143 -67.07556765 392.69794893 -68.01953125 391.328125 C-68.50502441 390.62365234 -68.99051758 389.91917969 -69.49072266 389.19335938 C-72.12630308 385.3631985 -74.75053567 381.52528255 -77.375 377.6875 C-77.91713135 376.8948877 -78.4592627 376.10227539 -79.01782227 375.28564453 C-81.2341317 372.04508937 -83.45006257 368.80427543 -85.66601562 365.56347656 C-89.44225484 360.04111498 -93.21998174 354.51977562 -97 349 C-97.45552246 348.33468262 -97.91104492 347.66936523 -98.38037109 346.98388672 C-102.78801307 340.54948009 -107.20890716 334.12513643 -111.6796875 327.734375 C-119.40100917 316.69056833 -127.0115131 305.58842576 -134.4206543 294.33203125 C-137.50726679 289.65978853 -140.65375477 285.06056734 -143.96875 280.546875 C-148.88882908 273.84440064 -153.43036098 266.90464679 -158 259.9609375 C-161.85503759 254.1332049 -165.83784018 248.43945735 -169.97363281 242.80810547 C-173.57526955 237.81701804 -176.97015208 232.68893613 -180.375 227.5625 C-181.08527344 226.50095703 -181.79554688 225.43941406 -182.52734375 224.34570312 C-183.20667969 223.32541016 -183.88601562 222.30511719 -184.5859375 221.25390625 C-185.1948584 220.33939697 -185.8037793 219.4248877 -186.43115234 218.48266602 C-187.7717846 216.36114573 -188.90517824 214.25310253 -190 212 C-190.88844843 210.75028489 -191.80704232 209.52161509 -192.75 208.3125 C-193.83506512 206.87630675 -194.9183535 205.43876969 -196 204 C-196.51175781 203.319375 -197.02351562 202.63875 -197.55078125 201.9375 C-207.75950158 187.58725747 -209.75108921 170.76773806 -207.57421875 153.65234375 C-203.88756032 136.84751421 -193.9577227 122.80389204 -180.0390625 112.9375 C-167.82377849 105.14986392 -155.38236103 102.37367137 -141 103 C-141.28875 102.02804687 -141.5775 101.05609375 -141.875 100.0546875 C-148.45056694 76.3100724 -145.71233787 52.25673637 -134.1484375 30.51953125 C-129.85519172 23.22443435 -124.88253496 17.06016035 -119 11 C-118.38769531 10.31421875 -117.77539062 9.6284375 -117.14453125 8.921875 C-87.85018199 -22.80846492 -34.15111585 -24.20157816 0 0 Z " fill="#C27E2E" transform="translate(336,190)"/>
<path d="M0 0 C4.5938668 3.72622707 8.82566953 7.815666 13 12 C13.76441406 12.7528125 14.52882813 13.505625 15.31640625 14.28125 C23.56715632 22.93565712 28.96752394 33.8408212 33 45 C33.36351562 45.85464844 33.72703125 46.70929688 34.1015625 47.58984375 C35 50 35 50 35 53 C36.08539063 52.65066406 37.17078125 52.30132812 38.2890625 51.94140625 C39.73430661 51.48155585 41.17962297 51.02193245 42.625 50.5625 C43.33785156 50.33240234 44.05070313 50.10230469 44.78515625 49.86523438 C45.83896484 49.53168945 45.83896484 49.53168945 46.9140625 49.19140625 C47.8723999 48.88505249 47.8723999 48.88505249 48.85009766 48.57250977 C71.9202324 42.42903191 96.48694623 47.92397774 116.9375 59.125 C137.38661572 71.50139291 151.80370211 89.932594 158 113 C158.51433594 114.3921875 158.51433594 114.3921875 159.0390625 115.8125 C165.39089562 136.88199522 160.82612456 161.92390703 151.00927734 181.14794922 C138.54906892 204.01276322 118.86842107 218.49514848 94.453125 226.40625 C92 227 92 227 88 227 C87.99635437 225.72737305 87.99270874 224.45474609 87.98895264 223.14355469 C87.95197662 211.13751963 87.89417503 199.13174044 87.81609726 187.12590027 C87.77662489 180.95387728 87.74443501 174.78199692 87.72900391 168.60986328 C87.71383608 162.6509748 87.6793874 156.69247843 87.63169098 150.73376465 C87.61687865 148.46288465 87.60895907 146.19194866 87.60811615 143.92102051 C87.6057444 140.73468448 87.57864634 137.54943024 87.54589844 134.36328125 C87.5509288 133.42891739 87.55595917 132.49455353 87.56114197 131.53187561 C87.44592176 124.26349466 85.55844434 119.12373871 80.94921875 113.49609375 C51.54762232 86.73505521 -1.65205859 86.48610242 -39 88 C-66.74264685 89.39926037 -107.86984238 92.09234896 -128.125 114.125 C-133.16624274 120.16947513 -133.30218588 125.81134927 -133.31884766 133.38989258 C-133.32889328 134.43425476 -133.3389389 135.47861694 -133.34928894 136.55462646 C-133.38014134 140.00125588 -133.39716203 143.44780753 -133.4140625 146.89453125 C-133.43277246 149.28635834 -133.45234575 151.67817881 -133.4727478 154.06999207 C-133.52409297 160.36144108 -133.56370609 166.65291149 -133.60089111 172.94445801 C-133.64091569 179.36602077 -133.69201512 185.7874943 -133.7421875 192.20898438 C-133.8389751 204.8059258 -133.92374707 217.4029184 -134 230 C-136.82698559 230.04260075 -139.65331329 230.07338108 -142.48046875 230.09765625 C-143.26933472 230.11074829 -144.05820068 230.12384033 -144.87097168 230.1373291 C-161.64191462 230.24486272 -176.70616265 223.85584852 -188.7890625 212.2421875 C-189.88347656 211.13230469 -189.88347656 211.13230469 -191 210 C-191.64710938 209.36320313 -192.29421875 208.72640625 -192.9609375 208.0703125 C-205.1728571 195.21846698 -208.47221935 178.57993999 -208.20703125 161.50390625 C-207.67410999 145.81378885 -199.9374618 131.0395221 -189 120 C-174.92218986 107.65543598 -159.65355336 102.18766784 -141 103 C-141.28875 102.02804687 -141.5775 101.05609375 -141.875 100.0546875 C-148.45056694 76.3100724 -145.71233787 52.25673637 -134.1484375 30.51953125 C-129.85519172 23.22443435 -124.88253496 17.06016035 -119 11 C-118.38769531 10.31421875 -117.77539062 9.6284375 -117.14453125 8.921875 C-87.85018199 -22.80846492 -34.15111585 -24.20157816 0 0 Z " fill="#E8E9E9" transform="translate(336,190)"/>
<path d="M0 0 C0.86783112 0.00060425 1.73566223 0.0012085 2.62979126 0.00183105 C15.17314841 0.02556685 27.59244383 0.15501361 40 2.1875 C40.79744629 2.31640625 41.59489258 2.4453125 42.41650391 2.578125 C58.92839526 5.35420481 76.8522765 8.83606913 91 18.1875 C91.969375 18.826875 92.93875 19.46625 93.9375 20.125 C96.67325892 22.86075892 98.69076908 25.52165342 100 29.1875 C100 34.6644725 98.58816199 38.08674344 95 42.1875 C79.38374084 54.15285898 60.0021434 57.87307667 41 60.9375 C40.28448975 61.05303223 39.56897949 61.16856445 38.83178711 61.28759766 C26.40368055 63.1525919 13.91673635 63.42799111 1.375 63.4375 C0.56730164 63.43817474 -0.24039673 63.43884949 -1.0725708 63.43954468 C-31.06507334 63.40006435 -69.94768365 62.20762285 -93.875 41.5703125 C-96.87990081 38.55150011 -98.42923758 36.03959097 -98.8125 31.75 C-98.45119607 27.02896203 -96.44771867 24.33330042 -93.171875 21.03125 C-69.34765644 0.80637381 -29.63336472 -0.0380109 0 0 Z " fill="#E2E3E3" transform="translate(312,289.8125)"/>
<path d="M0 0 C0.33 0 0.66 0 1 0 C1.14942337 4.41067124 1.25771011 8.81996481 1.32958984 13.23242188 C1.35958169 14.73007906 1.40039126 16.22756329 1.45263672 17.72460938 C1.92965689 31.7546143 1.92965689 31.7546143 -1.77734375 36.8359375 C-3.43554688 38.60253906 -3.43554688 38.60253906 -5 40 C-5.66902344 40.62132812 -6.33804688 41.24265625 -7.02734375 41.8828125 C-18.97695533 49.65372555 -32.21333437 53.11962158 -46 56 C-46.87914062 56.20367187 -47.75828125 56.40734375 -48.6640625 56.6171875 C-63.91966126 60.02479547 -79.5259374 60.34814256 -95.08447266 60.31567383 C-98.23245057 60.3125176 -101.37948122 60.33606477 -104.52734375 60.36132812 C-131.92874127 60.44623752 -169.74583195 58.30138509 -192 40 C-196.85052543 34.62509344 -198.25881888 30.37594278 -198.1953125 23.16796875 C-198.18886719 21.87568359 -198.18242187 20.58339844 -198.17578125 19.25195312 C-198.15907327 17.8971327 -198.14214342 16.54231499 -198.125 15.1875 C-198.11496003 13.81315749 -198.10583596 12.43880797 -198.09765625 11.06445312 C-198.07411242 7.70945683 -198.04122567 4.35481801 -198 1 C-194.89053611 2.50371381 -192.31415054 4.21976072 -189.5625 6.3125 C-183.74485594 10.41807019 -177.73091211 12.77451923 -171 15 C-169.46666016 15.52207031 -169.46666016 15.52207031 -167.90234375 16.0546875 C-150.15113387 21.61946532 -130.89158276 24.08689306 -112.32421875 24.23828125 C-110.83079704 24.25283607 -110.83079704 24.25283607 -109.3072052 24.26768494 C-106.10059535 24.29251386 -102.89419626 24.30520009 -99.6875 24.3125 C-98.5934082 24.31511841 -97.49931641 24.31773682 -96.37207031 24.32043457 C-78.9039878 24.32491291 -62.1707425 23.4287677 -45 20 C-44.13632812 19.8345166 -43.27265625 19.6690332 -42.3828125 19.49853516 C-28.31266842 16.74238273 -8.55122217 12.44556857 0 0 Z " fill="#CDCDCE" transform="translate(411,389)"/>
<path d="M0 0 C0.48831299 0.38526855 0.97662598 0.77053711 1.47973633 1.16748047 C6.01953387 4.67217157 10.53666191 7.61026593 15.6875 10.125 C16.38464111 10.4662793 17.08178223 10.80755859 17.80004883 11.15917969 C57.07511052 29.91072256 111.16724727 27.6946433 153 20 C153.85609863 19.85046875 154.71219727 19.7009375 155.59423828 19.546875 C170.79934104 16.81394203 188.01881044 11.3491478 199 0 C199.14942337 4.41067124 199.25771011 8.81996481 199.32958984 13.23242188 C199.35958169 14.73007906 199.40039126 16.22756329 199.45263672 17.72460938 C199.92957737 31.75227546 199.92957737 31.75227546 196.265625 36.83203125 C186.28782759 47.46854561 170.70933286 51.44581693 156.94335938 54.5546875 C155.17025888 54.96098591 153.40488453 55.40063365 151.640625 55.84375 C120.78987984 63.22431104 84.07637693 62.7028618 53 57 C52.14486816 56.85014648 51.28973633 56.70029297 50.40869141 56.54589844 C34.78534748 53.75696723 15.44706718 49.79394801 4 38 C-0.97313455 30.55408691 -0.46467508 23.12345761 -0.25 14.5 C-0.22990166 13.09117126 -0.21165678 11.68231479 -0.1953125 10.2734375 C-0.14839203 6.84824336 -0.08274777 3.42448476 0 0 Z " fill="#D7D7D7" transform="translate(213,341)"/>
</svg>
